<svg width="32" height="32" viewBox="0 0 32 32" fill="none" xmlns="http://www.w3.org/2000/svg">
<path fill-rule="evenodd" clip-rule="evenodd" d="M15.952 24.6739C21.0047 20.3426 28.102 16.1326 32 14.6166C31.3987 14.2313 30.46 13.6779 29.4013 13.0766C24.3727 14.7366 18.502 18.4179 13.2567 22.5806C14.1473 23.2539 15.0853 23.9519 15.952 24.6739Z" fill="#E31837"/>
<path fill-rule="evenodd" clip-rule="evenodd" d="M13.642 12.9087C12.896 12.5474 12.078 12.2107 11.4527 11.9221C9.55201 12.8601 7.07335 14.2801 3.94601 16.5174C4.62001 16.8787 5.34135 17.3114 6.11135 17.7447C8.51735 15.9641 10.9473 14.2801 13.642 12.9087Z" fill="#012169"/>
<path fill-rule="evenodd" clip-rule="evenodd" d="M18.1413 10.8393C17.2266 10.334 14.0513 9.15463 11.8613 8.64996C11.212 8.89063 10.2973 9.2513 9.67198 9.51596C10.466 9.73263 13.4253 10.5266 15.952 11.802C16.6013 11.4886 17.516 11.104 18.1413 10.8393Z" fill="#E31837"/>
<path fill-rule="evenodd" clip-rule="evenodd" d="M7.386 10.5267C4.57133 11.826 1.612 13.606 0 14.6407C0.577333 14.9053 1.15467 15.122 1.94867 15.5067C5.50933 13.1007 8.30067 11.6327 9.40733 11.152C8.61333 10.8627 7.86733 10.6707 7.386 10.5267Z" fill="#012169"/>
<path fill-rule="evenodd" clip-rule="evenodd" d="M20.2587 10.0934C20.908 9.87672 21.6547 9.68405 22.304 9.49138C20.4273 8.69738 18.0693 7.85538 15.952 7.32605C15.6153 7.42205 14.6047 7.68738 13.9067 7.90338C14.6287 8.12072 17.01 8.67405 20.2587 10.0934ZM8.39668 19.14C9.16668 19.5974 9.98468 20.2227 10.7787 20.7521C16.048 16.6621 21.2447 13.51 26.9473 11.7294C26.1533 11.3207 25.4553 10.96 24.5653 10.5267C21.1487 11.3927 15.302 13.726 8.39668 19.14Z" fill="#E31837"/>
</svg>
