<svg width="44" height="18" viewBox="0 0 44 18" fill="none" xmlns="http://www.w3.org/2000/svg">
<path d="M31.9766 1.90686L29.4377 6.66385C28.4794 5.86058 27.3092 5.26933 25.8162 5.26933C22.283 5.26933 20.8478 7.98809 20.8478 9.90318C20.8478 11.3247 21.7495 13.4221 24.8933 13.4221C26.2128 13.4221 28.0888 12.4745 28.6287 12.0433L26.1177 17.5622C24.9208 17.8087 24.5276 17.9616 23.5144 17.9939C17.8875 18.1673 15.6138 14.5991 15.6154 10.953C15.6192 6.13293 19.7706 0.271013 26.6526 0.271013C27.0743 0.271013 27.5901 0.421555 28.0311 0.588376L28.4768 0" fill="#0060AF"/>
<path d="M42.4527 0.149414L43.1716 17.4391H37.8211L37.8179 14.4738H34.1695L32.9687 17.4391H27.166L33.2325 5.09277L31.8646 5.08358L34.4638 0.149414H42.4527ZM37.7832 5.43867L35.7204 10.4676H37.8454" fill="#0060AF"/>
<path d="M12.2375 0.149755C14.8872 0.165076 16.3845 1.64981 16.3845 3.79455C16.3845 5.7717 14.8054 7.52189 13.0719 8.42686C14.8566 9.10409 15.0109 10.7666 15.0109 11.9427C15.0109 14.7843 12.2488 17.4394 8.65847 17.4394H0.828369L3.88271 5.2651L2.62809 5.25763L5.1928 0.149755C5.1928 0.149755 10.0829 0.134432 12.2375 0.149755ZM9.63793 7.1597C10.186 7.1597 11.1538 7.01644 11.3957 5.92146C11.6609 4.73285 10.7526 4.70086 10.317 4.70086L8.76033 4.69382L8.21745 7.15976L9.63793 7.1597ZM7.43707 10.215L6.72034 13.0565H8.55327C9.27446 13.0565 10.2573 12.687 10.4981 11.7623C10.7359 10.8349 10.0489 10.215 9.33031 10.215" fill="#0060AF"/>
</svg>
