<svg width="32" height="22" viewBox="0 0 32 22" fill="none" xmlns="http://www.w3.org/2000/svg">
<g clip-path="url(#clip0_1209_6542)">
<path d="M9.84084 17.1727L9.78279 17.2283C8.87126 18.1476 7.81642 18.6333 6.72984 18.6333C4.46053 18.6333 2.81432 16.9482 2.81432 14.624C2.81432 12.3034 4.46053 10.6156 6.72984 10.6156C7.81642 10.6156 8.87126 11.104 9.78279 12.0269L9.84084 12.0816L11.3002 10.3346L11.2612 10.2879C10.0476 8.86862 8.591 8.17826 6.80058 8.17826C5.00563 8.17826 3.36215 8.77705 2.17943 9.85523C0.891487 11.0241 0.213959 12.6723 0.213959 14.624C0.213959 16.5757 0.891487 18.2275 2.17943 19.3964C3.36215 20.4808 5.00563 21.0751 6.80058 21.0751C8.591 21.0751 10.0476 20.3839 11.2612 18.9637L11.3002 18.9206L9.84084 17.1727Z" fill="#004685"/>
<path d="M12.7735 20.8369H15.3512V8.37987H12.7735V20.8369Z" fill="#004685"/>
<path d="M25.4502 18.1288C24.7618 18.5436 24.1224 18.7528 23.5473 18.7528C22.7138 18.7528 22.3365 18.3165 22.3365 17.3469V10.7369H24.9641V8.392H22.3365V4.51558L19.8105 5.855V8.392H17.6301V10.7369H19.8105V17.768C19.8105 19.6828 20.9569 20.9935 22.6693 21.0276C23.8312 21.0501 24.5314 20.7071 24.9559 20.4558L24.9831 20.4387L25.6026 18.0364L25.4502 18.1288Z" fill="#004685"/>
<path d="M27.5839 20.8369H30.1652V8.37987H27.5839V20.8369Z" fill="#004685"/>
<path d="M31.6688 6.19629C29.3133 2.89442 25.4023 0.924788 21.4233 0.924788C17.4452 0.924788 13.5333 2.89442 11.1824 6.19629L11.0609 6.36597H14.0267L14.0594 6.33096C16.0775 4.26796 18.7132 3.17811 21.4233 3.17811C24.1334 3.17811 26.7673 4.26796 28.79 6.33096L28.8226 6.36597H31.7867L31.6688 6.19629Z" fill="#EE1C25"/>
</g>
<defs>
<clipPath id="clip0_1209_6542">
<rect width="32" height="20.5726" fill="white" transform="translate(0 0.713684)"/>
</clipPath>
</defs>
</svg>
