<svg width="64" height="18" viewBox="0 0 64 18" fill="none" xmlns="http://www.w3.org/2000/svg">
<g clip-path="url(#clip0_1209_6536)">
<path d="M0.430002 12.3693C0.430002 11.4752 0.414006 10.7267 0.364563 10.0571H2.09579L2.17795 11.2061H2.22594C2.61785 10.5996 3.33622 9.88096 4.67554 9.88096C5.72111 9.88096 6.53692 10.4562 6.88011 11.3169H6.91356C7.19131 10.8865 7.51705 10.567 7.89223 10.3447C8.33358 10.0407 8.8411 9.88096 9.49331 9.88096C10.8166 9.88096 12.1545 10.758 12.1545 13.2477V17.8239H10.195V13.5332C10.195 12.2422 9.73762 11.4752 8.77421 11.4752C8.08855 11.4752 7.58176 11.9553 7.37018 12.5135C7.3113 12.7265 7.27835 12.9455 7.27202 13.1661V17.8246H5.31248V13.3252C5.31248 12.2429 4.87186 11.4759 3.94044 11.4759C3.1908 11.4759 2.68474 12.0512 2.50297 12.5923C2.42226 12.784 2.38881 13.0084 2.38881 13.23V17.8246H0.430002V12.3693ZM19.7898 15.9591C19.7898 16.66 19.8225 17.3453 19.9032 17.8246H18.0905L17.9604 16.9639H17.911C17.4209 17.5704 16.5876 17.9993 15.561 17.9993C13.9599 17.9993 13.0619 16.8681 13.0619 15.6871C13.0619 13.7235 14.8404 12.7364 17.7815 12.7521V12.625C17.7815 12.1137 17.5685 11.2686 16.1637 11.2686C15.3792 11.2686 14.5634 11.5086 14.0246 11.8424L13.6327 10.5662C14.2209 10.2147 15.2498 9.88025 16.5062 9.88025C19.0547 9.88025 19.7905 11.461 19.7905 13.1497L19.7898 15.9591ZM17.8295 14.0296C16.408 13.997 15.0534 14.3002 15.0534 15.4804C15.0534 16.246 15.561 16.5975 16.1972 16.5975C16.9963 16.5975 17.5852 16.0855 17.7648 15.528C17.8088 15.3886 17.8308 15.2435 17.8302 15.0977V14.0296H17.8295ZM21.1771 12.3693C21.1771 11.4752 21.1604 10.7267 21.1131 10.0571H22.8749L22.9723 11.2231H23.0217C23.3642 10.616 24.2302 9.88096 25.5528 9.88096C26.9415 9.88096 28.3776 10.758 28.3776 13.2158V17.8239H26.3693V13.4388C26.3693 12.3224 25.944 11.4745 24.8504 11.4745C24.0513 11.4745 23.4944 12.0334 23.2828 12.6242C23.2173 12.7989 23.2013 13.039 23.2013 13.2605V17.8232H21.1764L21.1771 12.3693ZM37.0868 6.93671V15.6395C37.0868 16.437 37.1202 17.2998 37.1522 17.8246H35.357L35.2748 16.5975H35.2414C34.7688 17.4582 33.8039 18 32.6456 18C30.7508 18 29.2494 16.4214 29.2494 14.0303C29.2319 11.4298 30.897 9.88167 32.8092 9.88167C33.9028 9.88167 34.6866 10.3284 35.0458 10.905H35.08V6.93742H37.0875V6.93671H37.0868ZM35.0793 13.2946C35.0793 13.1363 35.0633 12.9445 35.0298 12.784C34.8502 12.0199 34.2147 11.3971 33.2993 11.3971C32.0094 11.3971 31.2896 12.5142 31.2896 13.965C31.2896 15.3832 32.0087 16.4207 33.2833 16.4207C34.0984 16.4207 34.8175 15.8774 35.0131 15.0323C35.0625 14.8576 35.08 14.6652 35.08 14.4585V13.2946H35.0793ZM38.5075 17.8246V10.0571H40.534V17.8246H38.5075ZM41.9533 12.5618C41.9533 11.5093 41.938 10.7587 41.8893 10.0578H43.6365L43.7005 11.5399H43.7666C44.1586 10.4398 45.0885 10.0578 45.9399 10.0578C46.1355 10.0578 46.249 10.0251 46.4118 10.0578V11.7813C46.2191 11.7397 46.0224 11.7182 45.8251 11.7174C44.8595 11.7174 44.2065 12.3239 44.0277 13.1995C43.9881 13.3999 43.9665 13.6033 43.963 13.8073V17.8253H41.9533V12.5618ZM47.344 17.8246V10.0571H49.3675V17.8246H47.344Z" fill="#0D2B5B"/>
<path d="M61.9721 1.84209C60.9695 0.725036 59.9035 1.23066 59.0565 1.64183C58.7002 1.81369 56.1284 3.23752 56.1284 3.23752C54.7193 3.80493 53.6221 3.18568 53.1917 2.66444C53.1505 2.61501 53.1133 2.56254 53.0804 2.5075L52.9801 2.33777C52.8105 2.0513 52.622 1.77589 52.4159 1.5133C52.2907 1.35413 52.1552 1.20302 52.0101 1.06093C51.046 0.110052 49.5053 -0.555352 46.9299 0.653312C45.7105 1.34357 41.7384 3.55993 41.7384 3.55993C40.2456 4.16 39.1041 3.42926 38.7333 2.8931C38.7166 2.87303 38.702 2.85138 38.6896 2.82848L38.6409 2.74752L38.3893 2.34558C38.2758 2.16951 38.154 1.99866 38.0243 1.83357C37.898 1.67541 37.7623 1.52461 37.6179 1.38192C36.6603 0.436718 35.1276 -0.227266 32.5747 0.958673C31.0311 1.81937 27.4407 3.8241 27.4407 3.8241L27.4392 3.82552L24.8115 5.29197L26.1711 6.92246C26.7434 7.45506 27.8188 8.32854 29.4824 7.59212C29.4824 7.59212 34.074 4.99513 34.0922 4.98732C38.0178 2.88316 39.9548 4.89358 40.8113 6.23362C40.8411 6.27551 40.8651 6.32096 40.892 6.36144L40.8935 6.36357C40.9044 6.37991 40.9109 6.39482 40.9204 6.41044L41.0171 6.56525C41.4344 7.18308 42.0925 7.58218 42.877 7.56371C43.3096 7.55519 43.6034 7.41742 44.0309 7.18521L48.4735 4.66846L48.483 4.6642C52.458 2.53448 54.4277 4.67627 55.269 6.01631C55.3344 6.13207 55.4086 6.24285 55.4849 6.34582C55.9016 6.8976 56.476 7.25906 57.206 7.24131C57.6881 7.23208 58.2283 6.94944 58.309 6.8976L63.635 3.89512C63.6365 3.89654 63.0926 3.09336 61.9721 1.84209Z" fill="#FDD213"/>
</g>
<defs>
<clipPath id="clip0_1209_6536">
<rect width="63.2892" height="18" fill="white" transform="translate(0.355408)"/>
</clipPath>
</defs>
</svg>
