<svg width="24" height="28" viewBox="0 0 24 28" fill="none" xmlns="http://www.w3.org/2000/svg">
<path d="M24 10V23C24 24.3261 23.4732 25.5979 22.5355 26.5355C21.5979 27.4732 20.3261 28 19 28H5C3.67392 28 2.40215 27.4732 1.46447 26.5355C0.526784 25.5979 0 24.3261 0 23V5C0 3.67392 0.526784 2.40215 1.46447 1.46447C2.40215 0.526784 3.67392 0 5 0H14V7C14 7.79565 14.3161 8.55871 14.8787 9.12132C15.4413 9.68393 16.2044 10 17 10H24Z" fill="#000"/>
<path d="M23.91 7.99997H17C16.7348 7.99997 16.4804 7.89461 16.2929 7.70707C16.1054 7.51954 16 7.26518 16 6.99997V0.0899658C17.1834 0.291645 18.2742 0.858033 19.12 1.70997L22.29 4.87997C23.1403 5.72693 23.7064 6.8172 23.91 7.99997Z" fill="#000"/>
</svg>
