<svg width="22" height="24" viewBox="0 0 22 24" fill="none" xmlns="http://www.w3.org/2000/svg">
<g clip-path="url(#clip0_1209_6544)">
<path d="M18.0846 1.86814C16.9775 0.605993 14.9763 0.0648804 12.416 0.0648804H4.98559C4.73228 0.0648898 4.48729 0.155281 4.29465 0.319803C4.10201 0.484324 3.97437 0.712184 3.93467 0.962417L0.840762 20.5889C0.779265 20.976 1.07888 21.3264 1.47106 21.3264H6.05837L7.21044 14.0175L7.17469 14.2463C7.25676 13.7297 7.69852 13.3486 8.22164 13.3486H10.4015C14.6839 13.3486 18.037 11.6089 19.0165 6.57611C19.0456 6.42726 19.0708 6.28239 19.0926 6.14085C18.9689 6.07537 18.9689 6.07537 19.0926 6.14085C19.3842 4.2807 19.0906 3.0145 18.0846 1.86814Z" fill="#27346A"/>
<path d="M8.96572 5.47076C9.09113 5.41103 9.22829 5.38008 9.3672 5.38016H15.1925C15.8824 5.38016 16.5258 5.42507 17.1137 5.51971C17.2782 5.54595 17.4419 5.57728 17.6045 5.61365C17.8349 5.66451 18.0627 5.72676 18.287 5.80016C18.5761 5.89672 18.8452 6.00917 19.0927 6.14085C19.3842 4.27998 19.0906 3.0145 18.0846 1.86814C16.9769 0.605993 14.9763 0.0648804 12.4161 0.0648804H4.98496C4.46176 0.0648804 4.01666 0.44586 3.93467 0.962417L0.840762 20.5882C0.779266 20.9759 1.07888 21.3259 1.47043 21.3259H6.05837L8.44856 6.16533C8.47206 6.01631 8.53141 5.87524 8.6215 5.75425C8.71158 5.63326 8.82971 5.53597 8.96572 5.47076Z" fill="#27346A"/>
<path d="M19.0166 6.57607C18.0371 11.6081 14.684 13.3486 10.4015 13.3486H8.22102C7.6979 13.3486 7.25606 13.7297 7.17478 14.2463L5.74153 23.3341C5.68798 23.6728 5.94985 23.9797 6.29246 23.9797H10.1594C10.381 23.9797 10.5952 23.9006 10.7636 23.7566C10.932 23.6127 11.0435 23.4134 11.0782 23.1946L11.1158 22.9975L11.8446 18.3774L11.8916 18.1221C11.9262 17.9032 12.0377 17.7039 12.2061 17.56C12.3745 17.4161 12.5887 17.337 12.8102 17.3369H13.389C17.1349 17.3369 20.0681 15.8147 20.9253 11.4124C21.283 9.57265 21.0979 8.03665 20.1515 6.95776C19.8644 6.63098 19.5079 6.3611 19.0926 6.14081C19.0701 6.28306 19.0457 6.42722 19.0166 6.57607Z" fill="#2790C3"/>
<path d="M18.0675 5.73222C17.9148 5.68762 17.7606 5.64813 17.6052 5.61381C17.4426 5.57804 17.2789 5.54693 17.1145 5.52052C16.5259 5.42523 15.8829 5.38025 15.1925 5.38025H9.36786C9.22886 5.37994 9.09159 5.41116 8.96639 5.47156C8.83023 5.53657 8.71196 5.6338 8.62184 5.75483C8.53171 5.87585 8.47243 6.01703 8.44915 6.16613L7.21111 14.0176L7.17535 14.2465C7.25679 13.7299 7.69855 13.3488 8.22175 13.3488H10.4023C14.6846 13.3488 18.0377 11.609 19.0172 6.57628C19.0464 6.42743 19.0708 6.28319 19.0933 6.14102C18.8453 6.01005 18.5768 5.89689 18.2877 5.80097C18.2147 5.77678 18.1413 5.75386 18.0676 5.73222" fill="#1F264F"/>
</g>
<defs>
<clipPath id="clip0_1209_6544">
<rect width="20.34" height="24" fill="white" transform="translate(0.829987)"/>
</clipPath>
</defs>
</svg>
