<svg width="42" height="42" viewBox="0 0 42 42" fill="none" xmlns="http://www.w3.org/2000/svg">
<path d="M24.0975 22.4475V23.1975C24.0975 23.69 24.0005 24.1776 23.812 24.6326C23.6236 25.0875 23.3474 25.5009 22.9991 25.8492C22.6509 26.1974 22.2375 26.4736 21.7826 26.6621C21.3276 26.8505 20.84 26.9475 20.3475 26.9475H17.9025C17.8909 27.3577 17.7674 27.7569 17.5453 28.1019C17.3232 28.4469 17.011 28.7246 16.6425 28.905C16.3351 29.0586 15.9961 29.1382 15.6525 29.1375C15.1442 29.1405 14.6499 28.9713 14.25 28.6575L11.4675 26.475C11.1965 26.2647 10.9772 25.9952 10.8263 25.6871C10.6754 25.379 10.597 25.0405 10.597 24.6975C10.597 24.3545 10.6754 24.016 10.8263 23.7079C10.9772 23.3998 11.1965 23.1303 11.4675 22.92L14.25 20.7375C14.5852 20.4699 14.99 20.3038 15.4165 20.2586C15.8431 20.2134 16.2736 20.2911 16.6575 20.4825C17.1686 20.727 17.5623 21.1638 17.7525 21.6975H23.325C23.4254 21.6945 23.5253 21.7117 23.6189 21.748C23.7125 21.7843 23.7979 21.8391 23.8699 21.9091C23.942 21.979 23.9992 22.0627 24.0383 22.1552C24.0774 22.2477 24.0975 22.3471 24.0975 22.4475Z" fill="#D3BDFF"/>
<path d="M31.4025 17.3025C31.4026 17.6455 31.3242 17.984 31.1734 18.2921C31.0226 18.6001 30.8034 18.8697 30.5325 19.08L27.75 21.2625C27.3445 21.5776 26.846 21.749 26.3325 21.75C25.9889 21.7507 25.6499 21.6711 25.3425 21.5175C24.8314 21.273 24.4377 20.8363 24.2475 20.3025H18.6525C18.4536 20.3025 18.2628 20.2235 18.1222 20.0829C17.9815 19.9422 17.9025 19.7514 17.9025 19.5525V18.8025C17.9025 17.808 18.2976 16.8541 19.0008 16.1509C19.7041 15.4476 20.6579 15.0525 21.6525 15.0525H24.0975C24.1066 14.6332 24.2328 14.2248 24.4617 13.8734C24.6906 13.522 25.0131 13.2416 25.393 13.0638C25.7728 12.8859 26.1947 12.8178 26.6112 12.8671C27.0277 12.9163 27.4221 13.081 27.75 13.3425L30.5325 15.525C30.8034 15.7354 31.0226 16.0049 31.1734 16.313C31.3242 16.6211 31.4026 16.9595 31.4025 17.3025Z" fill="#7F3DFF"/>
</svg>
